<?xml version="1.0" encoding="utf-8"?>
<!-- Generator: Adobe Illustrator 18.1.1, SVG Export Plug-In . SVG Version: 6.00 Build 0)  -->
<svg version="1.1" id="Layer_1" xmlns="http://www.w3.org/2000/svg" xmlns:xlink="http://www.w3.org/1999/xlink" x="0px" y="0px"
	 viewBox="0 280 612 512" enable-background="new 0 280 612 512" xml:space="preserve">
<path d="M392.5,442.3l-11.8,25.2h-67.1l-11.8-25.2h-136v178.9h268.4V442.3H392.5z M243.6,557.5c-14.3,0-26.1-11.8-26.1-26.1
	c0-14.5,11.8-26.1,26.1-26.1c14.3,0,26.1,11.8,26.1,26.1S257.9,557.5,243.6,557.5z M354.4,557.5c-14.3,0-26.1-11.8-26.1-26.1
	c0-14.5,11.8-26.1,26.1-26.1c14.5,0,26.1,11.8,26.1,26.1C380.7,545.8,369,557.5,354.4,557.5z"/>
<g>
	<path d="M513.7,376.8c3.7,0.6,9.4,7.5,11.9,9.7c10.8,9.2,20.2,20.4,27.9,32.7c0.7,1.3,2.6,2.4,3.5,3.7c0.2,0.9,0.4,1.7,0.6,2.6
		c1.5,2.4,4.2,5.1,5.7,7.5c0,0.7,0.2,1.5,0.2,2.2c0.4,0.9,1.5,0.9,1.8,1.8h0.2c0.2,0.9,0.2,1.8,0.4,2.8c0.6,0.4,1.1,0.7,1.7,0.9
		c0,0.7,0,1.5,0,2.2c0.6,0.6,1.3,1.1,1.8,1.7c0,0.9,0.2,1.7,0.2,2.6c0.6,0.6,1.1,0.9,1.7,1.5c0.2,0.9,0.2,2,0.4,2.9
		c0.2,0.7,1.3,0.9,1.7,1.7c0.2,1.3,0.4,2.6,0.6,3.9c0.6,0.6,1.3,1.1,1.8,1.8c0,0.9,0,1.8,0,2.8c0.6,0.7,1.3,1.7,1.8,2.4
		c0.2,1.3,0.2,2.6,0.4,3.7c0.6,0.7,1.1,1.3,1.7,2c0,1.3,0.2,2.6,0.2,3.9c0.7,1.1,1.3,2,2,3.1c0,1.3,0,2.6,0,3.9c0.7,1.3,1.3,2.6,2,4
		c0,1.8,0.2,3.5,0.2,5.3c0.4,1.3,1.5,2.2,1.8,3.7c0,2,0,4,0,6.1c0.6,1.7,1.3,3.1,1.8,4.8c0.2,5.3,0.2,10.8,0.4,16.2
		c1.1,6.1,1.1,15.8,0,21.9c0,4.8-0.2,9.7-0.2,14.5c-0.7,2-1.3,4-2,6.1c0,2.4-0.2,4.8-0.2,7.2c-0.6,0.9-1.1,1.8-1.7,2.6
		c0,1.8-0.2,3.9-0.2,5.7c-0.7,1.3-1.3,2.4-2,3.5c0,1.3,0,2.6,0,3.9c-0.7,1.1-1.3,2.2-2,3.1c0,1.1,0,2.2,0,3.3
		c-0.7,0.9-1.3,1.8-2,2.8c0,1.1,0,2.2,0,3.1c-0.7,0.7-1.5,1.5-2.2,2.2c0,1.1-0.2,2.2-0.2,3.3c-0.6,0.4-1.3,0.7-1.8,1.3
		c0,0.9,0,2,0,2.9c-0.4,1.1-1.7,0.7-2,1.5c0,1.1-0.2,2.2-0.2,3.3c-0.4,0.7-1.5,0.7-1.8,1.5c-0.2,1.1-0.4,2.2-0.4,3.3
		c-0.6,0.2-0.9,0.4-1.5,0.6c-0.2,1.1-0.4,2.2-0.6,3.3c-0.4,0.2-0.9,0.4-1.5,0.6c-0.2,1.1-0.6,2.2-0.7,3.3c-0.4,0.2-0.7,0.2-1.1,0.4
		c-0.2,0.9-0.4,1.8-0.6,2.8c-0.6,0.4-1.1,0.7-1.7,0.9c-6.6,13.1-14.5,25.7-25,34.7c-2.2-0.4-1.8-1.3-3.1-2.2
		c-0.7-0.6-2.2-0.2-3.1-0.6c0-0.6,0-1.1,0-1.7c0.9-1.5,2.8-2.2,3.9-3.5c3.3-4,6.1-8.1,9.6-11.9c0.4-0.9,0.7-1.8,0.9-2.8
		c0.9-1.3,2.6-2.2,3.5-3.3c1.1-1.7,1.3-3.5,2.4-5c0.6-0.4,1.3-0.7,1.8-0.9c1.1-1.5,1.7-4.2,2.8-5.7c0.4-0.4,0.9-0.6,1.5-0.7
		c0-0.7,0.2-1.7,0.2-2.4c0.6-0.4,1.3-0.7,1.8-0.9c0-0.9,0-1.7,0-2.6c0.7-0.4,1.3-0.9,2-1.5c0-0.9,0-1.7,0-2.6c0.7-0.4,1.3-0.9,2-1.5
		c0-0.9,0-1.7,0-2.6c0.7-0.6,1.3-1.1,2-1.7c0-1.1,0.2-2,0.2-2.9c0.6-0.6,1.3-1.1,1.8-1.7c0-1.1,0.2-2.2,0.2-3.3
		c0.6-0.4,1.1-0.7,1.7-1.1c0.2-1.5,0.4-2.9,0.6-4.4c0.6-0.2,0.9-0.6,1.5-0.7c0-1.5,0-2.8,0-4.2c0.6-0.7,1.3-1.7,1.8-2.4
		c0.2-1.7,0.2-3.1,0.4-4.8c0.6-0.9,1.3-1.7,1.8-2.6c0-1.5,0-2.8,0-4.2c0.6-0.9,1.3-1.8,1.8-2.8c0.2-2.2,0.2-4.4,0.4-6.6
		c2.8-9.6,3.9-19.3,3.9-32c0-8.8-0.2-17.6-0.2-26.5c-0.6-1.8-1.3-3.5-1.8-5.3c0-2.4,0-4.8,0-7.2c-0.7-1.7-1.3-3.1-2-4.8
		c0-1.7,0-3.1,0-4.8c-0.6-1.1-1.3-2.2-1.8-3.3c-0.2-1.8-0.2-3.5-0.4-5.3c-0.6-0.6-1.1-1.1-1.7-1.8c0-1.3-0.2-2.6-0.2-3.9
		c-0.6-0.7-1.3-1.7-1.8-2.4c-0.2-1.5-0.2-2.8-0.4-4.2c-0.6-0.7-1.3-1.3-1.8-2c0-0.9,0-1.8,0-2.8c-0.6-0.6-1.1-1.3-1.7-1.8
		c-0.2-1.3-0.4-2.6-0.6-3.9c-0.6-0.6-1.3-1.1-1.8-1.7c0-0.9,0-1.7,0-2.6c-0.6-0.6-1.3-1.1-1.8-1.7c0-0.9-0.2-1.7-0.2-2.6
		c-0.6-0.6-1.3-1.1-1.8-1.7c-8.5-17.8-19.1-32-31.4-46.1c-3.9-4.4-8.6-9-13.4-12.5c-2-1.5-5.9-3.1-6.3-6.3c0-0.2,0.2-0.4,0.2-0.6
		C511.1,379.9,512.2,378.1,513.7,376.8z"/>
	<path d="M489.4,410.6c0.4,0,0.7,0.2,0.9,0.2c6.6,3.3,14.2,13.4,18.8,19.1c0.9,1.1,2.4,1.8,3.5,2.8c1.5,2.4,3.1,5,4.6,7.4
		c0.6,0.2,1.1,0.6,1.7,0.7c1.1,1.5,1.1,3.5,2.2,5c0.6,0.4,1.3,0.7,1.8,1.3c5.1,8.8,9,18.6,14,27.6c0.2,1.3,0.2,2.6,0.4,3.9
		c0.6,0.6,1.1,1.1,1.7,1.7c0,1.3,0.2,2.6,0.2,3.9c0.7,1.1,1.3,2.2,2,3.1c0,1.7,0.2,3.1,0.2,4.8c0.6,0.9,1.3,1.8,1.8,2.8
		c0,1.8,0.2,3.9,0.2,5.7c4,11.8,5.5,34.6,2,48c0,3.1-0.2,6.4-0.2,9.6c-0.7,1.7-1.3,3.1-2,4.8c0,1.5,0,3.1,0,4.6
		c-0.7,1.5-1.5,2.9-2.2,4.4c-0.4,1.7,0.2,3.1-0.6,4.2v0.2c-0.4,0.2-0.7,0.4-1.3,0.6c-0.2,1.7-0.2,3.5-0.4,5.1
		c-0.6,0.4-1.1,0.7-1.7,0.9c0,1.1-0.2,2.2-0.2,3.1c-0.4,1.7-1.7,1.8-2,2.8c0,1.1,0,2.2,0,3.1c-0.7,0.6-1.3,1.1-2,1.7
		c0,0.9,0,1.7,0,2.6c-0.4,0.9-1.5,0.9-1.8,1.7c0,0.7-0.2,1.7-0.2,2.4c-0.4,0.9-1.5,1.1-1.8,1.8c0,0.7-0.2,1.5-0.2,2.2
		c-0.4,0.9-1.3,0.9-1.8,1.7v0.2c0,0.7-0.2,1.5-0.2,2.2c-0.6,0.6-1.3,1.1-1.8,1.7c0,0.7,0,1.7,0,2.4c-0.6,0.4-1.1,0.7-1.8,1.3
		c-1.1,1.5-1.3,2.9-2,4.6c-0.7,0.6-1.3,1.1-2,1.7c-4.4,6.3-7.7,12.3-13.8,17.1c-1.5,1.1-2.2,3.3-4,4.2c-1.5-0.6-1.8-1.8-2.8-2.4
		c-1.1-0.6-1.8,0-2.8-0.4c0-0.6,0-1.1,0-1.7c0.7-1.5,2.6-2.4,3.7-3.5c2.4-2.9,4-6.1,6.4-9c0.9-1.1,2.8-2,3.7-3.1
		c1.1-1.5,1.3-3.1,2.2-4.6c0.7-1.3,2.6-2.4,3.5-3.7c0.2-0.9,0.6-1.7,0.7-2.6c0.9-1.3,2.9-2.8,3.9-4c0.2-0.9,0.4-1.7,0.6-2.6
		c0.6-0.2,0.9-0.6,1.5-0.7c0.2-0.9,0.4-2,0.6-2.9c0.6-0.4,1.1-0.7,1.7-0.9c0-0.9,0.2-1.8,0.2-2.8c0.6-0.6,1.3-0.9,1.8-1.5
		c0-0.9,0.2-2,0.2-2.9c0.6-0.6,1.3-1.1,1.8-1.7c1.3-2.8-0.7-3.3,2-4.8c0-3.3,0.7-4,1.8-5.7c0.2-1.5,0.2-3.1,0.4-4.6
		c0.6-0.4,1.1-0.9,1.7-1.5c0.9-1.8-0.4-3.7,0.2-5.9c0.6-1.1,1.3-2.2,1.8-3.3c0-1.8,0-3.7,0-5.5c9.4-44.9-5.9-87.3-24.5-113.6
		c-5.1-7.2-11.8-13.2-17.6-19.9c-2.4-2.8-6.6-4.4-8.5-7.5c0-0.4-0.2-0.7-0.2-1.3C486.1,414.1,488.2,411.9,489.4,410.6z"/>
	<path d="M465.2,444.3c0.4,0,0.7,0.2,0.9,0.2c4.4,2.2,13.8,14,16.4,18.6c0.6,0.6,1.3,0.9,1.8,1.3c1.3,1.5,1.3,3.3,2.4,5
		c0.6,0.4,1.1,0.7,1.7,0.9c1.5,1.8,1.5,4,2.6,6.1c5,8.1,8.3,18.6,11.6,28.3c0.2,2.4,0.4,5,0.4,7.4c0.9,3.1,1.8,5.5,1.8,10.3
		c0,7.7,0,15.4,0,23c-0.7,2-1.3,4-2,6.1c0,2-0.2,3.9-0.2,5.9c-0.4,0.9-1.7,1.1-2,1.8c0,1.7,0,3.5,0,5.1c-0.7,0.7-1.3,1.7-2,2.4
		c0,1.1,0,2.4,0,3.5c-0.4,0.9-1.5,1.1-1.8,1.8c-1.5,2.4,0.6,3.1-2.2,5.1c0,1.1-0.2,2.2-0.2,3.3c-1.7,0.7-2,0.9-1.8,3.3
		c0,0.2-0.2,0.4-0.2,0.6c-0.6,0.4-1.3,0.6-1.8,0.7c0,1.3,0,2.4-0.4,3.1c-0.9,0.4-4.8,6.1-5.5,7.2h-0.2c0,0.7-0.2,1.7-0.2,2.4
		c-0.7,1.3-2.6,2.2-3.5,3.3c-4,5.5-7.9,10.5-12.9,15.1c-3.5,0-3.7-1.5-6.4-2.2c-0.4-0.7-0.7-1.7-1.1-2.4c5.5-3.3,9.2-8.6,12.7-13.8
		c0.9-1.3,3.1-1.8,4.2-3.1c0.2-0.9,0.2-1.7,0.4-2.6c0.2-0.6,3.7-3.5,3.9-3.7c0-0.7,0-1.7,0-2.4c0.6-0.4,1.1-0.7,1.8-0.9
		c0.2-0.9,0.4-2,0.6-2.9c0.6-0.2,0.9-0.4,1.5-0.6c0.2-0.9,0.2-1.8,0.4-2.8c0.6-0.6,1.3-0.9,1.8-1.5c0-1.1,0.2-2.2,0.2-3.1
		c0.6-0.4,1.1-0.7,1.8-1.1c0-1.3,0.2-2.4,0.2-3.5c0.6-0.6,1.3-0.9,1.8-1.5c0-1.3,0-2.6,0-3.9c0.4-1.3,1.7-1.5,2-2.4
		c0-1.3,0-2.6,0-3.9c0.4-2.4,1.5-3.7,1.8-5.5c0-2.2,0-4.4,0-6.6c1.5-5.9,3.5-16.2,1.8-24.3c-0.6-1.8-1.3-3.7-1.8-5.5
		c0-2.6-0.2-5-0.2-7.5c-0.6-0.9-1.1-1.7-1.7-2.6c0-1.7-0.2-3.1-0.2-4.8c-0.7-1.1-1.3-2.2-2-3.1c0-1.3-0.2-2.4-0.2-3.5
		c-0.6-0.7-1.3-1.3-1.8-2c0-0.9,0-1.8,0-2.8c-0.6-0.6-1.1-1.1-1.7-1.7c-1.5-2.6-1.3-5.1-2.8-7.7s-3.9-5.3-5.5-7.5
		c-0.2-0.9-0.6-1.8-0.7-2.8c-0.9-1.3-2.6-2.2-3.5-3.3c-1.7-2.4-2.6-5.1-4.6-7.2c-2.2-2-9.4-7.2-9.7-10.1
		C461.9,447.8,463.9,445.9,465.2,444.3z"/>
</g>
<g>
	<path d="M97.3,381.4c0,0.2,0.2,0.4,0.2,0.6c-0.4,2.9-4.2,4.8-6.3,6.3c-4.8,3.5-9.6,8.1-13.4,12.5c-12.1,14.2-23,28.3-31.4,46.1
		c-0.6,0.6-1.3,1.1-1.8,1.7c0,0.9-0.2,1.7-0.2,2.6c-0.6,0.6-1.3,1.1-1.8,1.7c0,0.9,0,1.7,0,2.6c-0.6,0.6-1.3,1.1-1.8,1.7
		c-0.2,1.3-0.4,2.6-0.6,3.9c-0.6,0.6-1.1,1.1-1.7,1.8c0,0.9,0,1.8,0,2.8c-0.6,0.7-1.3,1.3-1.8,2c-0.2,1.5-0.2,2.8-0.4,4.2
		c-0.6,0.7-1.3,1.7-1.8,2.4c0,1.3-0.2,2.6-0.2,3.9c-0.6,0.6-1.1,1.3-1.7,1.8c-0.2,1.8-0.2,3.5-0.4,5.3c-0.6,1.1-1.3,2.2-1.8,3.3
		c0,1.7,0,3.1,0,4.8c-0.7,1.7-1.3,3.1-2,4.8c0,2.4,0,4.8,0,7.2c-0.6,1.8-1.3,3.5-1.8,5.3c0,8.8-0.2,17.6-0.2,26.5
		c0,12.7,1.1,22.4,3.9,32c0.2,2.2,0.2,4.4,0.4,6.6c0.6,0.9,1.3,1.8,1.8,2.8c0,1.5,0,2.8,0,4.2c0.6,0.9,1.3,1.7,1.8,2.6
		c0.2,1.7,0.2,3.1,0.4,4.8c0.6,0.7,1.3,1.7,1.8,2.4c0,1.5,0,2.8,0,4.2c0.6,0.4,0.9,0.6,1.5,0.7c0.2,1.5,0.4,2.9,0.6,4.4
		c0.6,0.4,1.1,0.7,1.7,1.1c0,1.1,0.2,2.2,0.2,3.3c0.6,0.6,1.3,1.1,1.8,1.7c0,0.9,0.2,2,0.2,2.9c0.7,0.6,1.3,1.1,2,1.7
		c0,0.9,0,1.7,0,2.6c0.7,0.6,1.3,0.9,2,1.5c0,0.9,0,1.7,0,2.6c0.7,0.6,1.3,0.9,2,1.5c0,0.9,0,1.7,0,2.6c0.6,0.4,1.1,0.7,1.8,0.9
		c0,0.7,0.2,1.7,0.2,2.4c0.6,0.2,0.9,0.6,1.5,0.7c1.3,1.5,1.7,4.2,2.8,5.7c0.6,0.4,1.3,0.7,1.8,0.9c1.3,1.5,1.3,3.3,2.4,5
		c0.7,1.1,2.6,2.2,3.5,3.3c0.4,0.9,0.7,1.8,0.9,2.8c3.5,3.9,6.3,7.9,9.6,11.9c1.1,1.3,2.9,2,3.9,3.5c0,0.6,0,1.1,0,1.7
		c-0.9,0.4-2.2,0-3.1,0.6c-1.3,0.7-0.7,1.8-3.1,2.2c-10.7-9-18.6-21.7-25-34.7c-0.6-0.4-1.1-0.7-1.7-0.9c-0.2-0.9-0.4-1.8-0.6-2.8
		c-0.4-0.2-0.7-0.2-1.1-0.4c-0.4-1.1-0.6-2.2-0.7-3.3c-0.6-0.2-0.9-0.4-1.5-0.6c-0.2-1.1-0.4-2.2-0.6-3.3c-0.6-0.2-0.9-0.4-1.5-0.6
		c-0.2-1.1-0.2-2.2-0.4-3.3c-0.4-0.6-1.5-0.6-1.8-1.5c0-1.1-0.2-2.2-0.2-3.3c-0.4-0.7-1.7-0.4-2-1.5c0-0.9,0-2,0-2.9
		c-0.6-0.4-1.3-0.7-1.8-1.3c0-1.1-0.2-2.2-0.2-3.3c-0.7-0.7-1.5-1.5-2.2-2.2c0-1.1,0-2,0-3.1c-0.7-0.9-1.3-1.8-2-2.8
		c0-1.1,0-2.2,0-3.3c-0.7-1.1-1.3-2.2-2-3.1c0-1.3,0-2.6,0-3.9c-0.7-1.1-1.3-2.4-2-3.5c0-1.8-0.2-3.9-0.2-5.7
		c-0.6-0.9-1.1-1.7-1.7-2.6c0-2.4-0.2-4.8-0.2-7.2c-0.7-2-1.3-4-2-6.1c0-4.8-0.2-9.7-0.2-14.5c-1.1-6.1-1.1-15.8,0-21.9
		c0.2-5.3,0.2-10.7,0.4-16.2c0.6-1.7,1.3-3.1,1.8-4.8c0-2,0-4,0-6.1c0.4-1.5,1.5-2.6,1.8-3.7c0-1.8,0.2-3.5,0.2-5.3
		c0.7-1.3,1.3-2.6,2-4c0-1.3,0-2.6,0-3.9c0.7-1.1,1.3-2,2-3.1c0-1.3,0.2-2.6,0.2-3.9c0.6-0.7,1.1-1.3,1.7-2c0.2-1.3,0.4-2.6,0.4-3.7
		c0.6-0.7,1.3-1.7,1.8-2.4c0-0.9,0-1.8,0-2.8c0.6-0.6,1.3-1.3,1.8-1.8c0.2-1.3,0.4-2.6,0.6-3.9c0.4-0.6,1.3-0.7,1.7-1.7
		c0.2-0.9,0.4-2,0.4-2.9c0.6-0.6,1.1-0.9,1.7-1.5c0-0.9,0.2-1.7,0.2-2.6c0.6-0.6,1.3-1.1,1.8-1.7c0-0.7,0-1.5,0-2.2
		c0.6-0.4,1.1-0.7,1.7-0.9c0.2-0.9,0.2-1.8,0.4-2.8h0.2c0.4-0.7,1.5-0.9,1.8-1.8c0-0.7,0.2-1.5,0.2-2.2c1.5-2.4,4.2-5.1,5.7-7.5
		c0.2-0.9,0.4-1.7,0.6-2.6c0.9-1.1,2.6-2.4,3.5-3.7c7.7-12.3,17.1-23.5,27.9-32.7c2.6-2.2,8.3-9.2,11.9-9.7
		C94.7,378.1,96,379.9,97.3,381.4z"/>
	<path d="M121.9,415.8c0,0.4-0.2,0.7-0.2,1.3c-1.8,3.1-6.3,4.8-8.5,7.5c-5.7,6.6-12.5,12.7-17.6,19.9c-18.8,26.1-34,68.6-24.6,113.6
		c0,1.8,0,3.7,0,5.5c0.6,1.1,1.3,2.2,1.8,3.3c0.6,2.2-0.7,4,0.2,5.9c0.6,0.6,1.1,0.9,1.7,1.5c0.2,1.5,0.2,3.1,0.4,4.6
		c1.1,1.7,1.8,2.4,1.8,5.7c2.8,1.5,0.7,2,2,4.8c0.6,0.6,1.3,1.1,1.8,1.7c0,0.9,0.2,2,0.2,2.9c0.6,0.6,1.1,0.9,1.8,1.5
		c0,0.9,0.2,1.8,0.2,2.8c0.6,0.4,1.1,0.7,1.7,0.9c0.2,0.9,0.4,2,0.6,2.9c0.6,0.4,0.9,0.6,1.5,0.7c0.2,0.9,0.4,1.7,0.6,2.6
		c0.9,1.3,2.9,2.8,3.9,4c0.2,0.9,0.6,1.7,0.7,2.6c0.9,1.3,2.6,2.6,3.5,3.7c1.1,1.5,1.1,3.1,2.2,4.6c0.9,1.1,2.8,2,3.7,3.1
		c2.4,2.9,4.2,6.1,6.4,9c0.9,1.3,2.8,2.2,3.7,3.5c0,0.6,0,1.1,0,1.7c-0.9,0.6-1.7-0.2-2.8,0.4c-0.9,0.4-1.5,1.8-2.8,2.4
		c-1.8-0.9-2.6-2.9-4-4.2c-6.1-4.8-9.2-10.8-13.8-17.1c-0.7-0.6-1.3-1.1-2-1.7c-0.7-1.5-0.9-3.1-2-4.6c-0.6-0.4-1.3-0.7-1.8-1.3
		c0-0.7,0-1.7,0-2.4c-0.6-0.6-1.3-1.1-1.8-1.7c0-0.7-0.2-1.5-0.2-2.2V605c-0.6-0.7-1.5-0.7-1.8-1.7c0-0.7-0.2-1.5-0.2-2.2
		c-0.4-0.7-1.5-0.9-1.8-1.8c0-0.7-0.2-1.7-0.2-2.4c-0.4-0.7-1.5-0.7-1.8-1.7c0-0.9,0-1.7,0-2.6c-0.7-0.6-1.3-1.1-2-1.7
		c0-1.1,0-2.2,0-3.1c-0.6-1.1-1.7-1.1-2-2.8c0-1.1-0.2-2.2-0.2-3.1c-0.6-0.4-1.1-0.7-1.7-0.9c-0.2-1.7-0.2-3.5-0.4-5.1
		c-0.4-0.2-0.7-0.4-1.3-0.6v-0.1c-0.7-1.1-0.2-2.6-0.6-4.2c-0.7-1.5-1.5-2.9-2.2-4.4c0-1.5,0-3.1,0-4.6c-0.7-1.7-1.3-3.1-2-4.8
		c0-3.1-0.2-6.4-0.2-9.6c-3.5-13.4-2-36,2-48c0-1.8,0.2-3.9,0.2-5.7c0.6-0.9,1.3-1.8,1.8-2.8c0-1.7,0.2-3.1,0.2-4.8
		c0.7-1.1,1.3-2.2,2-3.1c0-1.3,0.2-2.6,0.2-3.9c0.6-0.6,1.1-1.1,1.7-1.7c0.2-1.3,0.4-2.6,0.4-3.9c5-9,8.8-18.8,14-27.6
		c0.6-0.4,1.3-0.7,1.8-1.3c1.1-1.5,1.1-3.5,2.2-5c0.6-0.2,1.1-0.6,1.7-0.7c1.5-2.4,3.1-5,4.6-7.4c1.1-1.1,2.6-1.7,3.5-2.8
		c4.8-5.7,12.1-15.8,18.8-19.1c0.4,0,0.7-0.2,0.9-0.2C119,411.9,120.8,414.1,121.9,415.8z"/>
	<path d="M146.2,449.4c-0.4,2.9-7.5,8.1-9.7,10.1c-2,2-2.9,4.8-4.6,7.2c-0.7,1.1-2.6,2.2-3.5,3.3c-0.4,0.9-0.6,1.8-0.7,2.8
		c-1.7,2.4-4,5.1-5.5,7.5c-1.5,2.6-1.3,5.1-2.8,7.7c-0.6,0.6-1.1,1.1-1.7,1.7c0,0.9,0,1.8,0,2.8c-0.6,0.7-1.3,1.3-1.8,2
		c0,1.3-0.2,2.4-0.2,3.5c-0.7,1.1-1.3,2.2-2,3.1c0,1.7-0.2,3.1-0.2,4.8c-0.6,0.9-1.1,1.7-1.7,2.6c0,2.6-0.2,5-0.2,7.5
		c-0.6,1.8-1.3,3.7-1.8,5.5c-1.8,8.3,0.4,18.4,1.8,24.3c0,2.2,0,4.4,0,6.6c0.4,1.8,1.5,3.1,1.8,5.5c0,1.3,0,2.6,0,3.9
		c0.4,0.9,1.7,1.1,2,2.4c0,1.3,0,2.6,0,3.9c0.6,0.6,1.3,0.9,1.8,1.5c0,1.1,0.2,2.4,0.2,3.5c0.6,0.4,1.3,0.7,1.8,1.1
		c0,1.1,0.2,2.2,0.2,3.1c0.6,0.4,1.3,0.9,1.8,1.5c0.2,0.9,0.2,1.8,0.4,2.8c0.6,0.2,0.9,0.4,1.5,0.6c0.2,0.9,0.4,2,0.6,2.9
		c0.6,0.4,1.3,0.7,1.8,0.9c0,0.7,0,1.7,0,2.4c0.2,0.2,3.7,3.3,3.9,3.7c0.2,0.9,0.2,1.7,0.4,2.6c1.1,1.3,3.3,1.8,4.2,3.1
		c3.7,5.1,7.2,10.5,12.7,13.8c-0.4,0.7-0.7,1.7-1.1,2.4c-2.9,0.7-2.9,2.2-6.4,2.2c-5-4.6-8.8-9.6-12.9-15.1c-0.9-1.3-2.6-2-3.5-3.3
		c0-0.7-0.2-1.7-0.2-2.4h-0.2c-0.6-1.1-4.6-6.8-5.5-7.2c-0.4-0.7-0.4-1.8-0.4-3.1c-0.6-0.2-1.3-0.6-1.8-0.7c0-0.2-0.2-0.4-0.2-0.6
		c0.2-2.4-0.2-2.8-1.8-3.3c0-1.1-0.2-2.2-0.2-3.3c-2.8-2-0.7-2.8-2.2-5.1c-0.4-0.7-1.5-0.9-1.8-1.8c0-1.3,0-2.4,0-3.5
		c-0.7-0.7-1.3-1.7-2-2.4c0-1.7,0-3.5,0-5.1c-0.4-0.7-1.7-0.9-2-1.8c0-2-0.2-4-0.2-5.9c-0.7-2-1.3-4-2-6.1c0-7.7,0-15.4,0-23
		c0-4.8,0.9-7.2,1.8-10.3c0.2-2.4,0.2-5,0.4-7.4c3.1-9.7,6.6-20.2,11.6-28.3c1.3-1.8,1.3-4.2,2.6-6.1c0.6-0.4,1.1-0.7,1.7-0.9
		c1.1-1.7,1.1-3.5,2.4-5c0.6-0.4,1.3-0.9,1.8-1.3c2.6-4.6,12.1-16.2,16.4-18.6c0.4,0,0.7-0.2,0.9-0.2
		C143.3,445.9,145.1,447.8,146.2,449.4z"/>
</g>
<text transform="matrix(1 0 0 1 139.3468 421.2901)" font-family="'Phosphate-Solid'" font-size="202.9924">mix</text>
<text transform="matrix(1 0 0 1 101.5543 788.1779)" font-family="'Phosphate-Solid'" font-size="202.9924">TAPE</text>
</svg>
